<mxfile host="Electron" modified="2023-05-22T15:36:50.470Z" agent="Mozilla/5.0 (Windows NT 10.0; Win64; x64) AppleWebKit/537.36 (KHTML, like Gecko) draw.io/21.2.8 Chrome/112.0.5615.165 Electron/24.2.0 Safari/537.36" etag="lxT0qXxrKXQZavznoSDA" version="21.2.8" type="device">
  <diagram id="C5RBs43oDa-KdzZeNtuy" name="Page-1">
    <mxGraphModel dx="209" dy="1825" grid="1" gridSize="10" guides="1" tooltips="1" connect="1" arrows="1" fold="1" page="1" pageScale="1" pageWidth="827" pageHeight="1169" math="0" shadow="0">
      <root>
        <mxCell id="WIyWlLk6GJQsqaUBKTNV-0" />
        <mxCell id="WIyWlLk6GJQsqaUBKTNV-1" parent="WIyWlLk6GJQsqaUBKTNV-0" />
        <mxCell id="3ODWMDdF5giHEPFokoJv-33" value="Yes" style="rounded=0;html=1;jettySize=auto;orthogonalLoop=1;fontSize=11;endArrow=block;endFill=0;endSize=8;strokeWidth=1;shadow=0;labelBackgroundColor=none;edgeStyle=orthogonalEdgeStyle;exitX=1;exitY=0.5;exitDx=0;exitDy=0;entryX=0;entryY=0.5;entryDx=0;entryDy=0;" parent="WIyWlLk6GJQsqaUBKTNV-1" edge="1">
          <mxGeometry y="20" relative="1" as="geometry">
            <mxPoint as="offset" />
            <mxPoint x="424" y="530" as="targetPoint" />
          </mxGeometry>
        </mxCell>
        <mxCell id="7OXbnp42D5U2tR_pvhxg-88" value="start" style="ellipse;whiteSpace=wrap;html=1;fillColor=#dae8fc;strokeColor=#6c8ebf;" parent="WIyWlLk6GJQsqaUBKTNV-1" vertex="1">
          <mxGeometry x="1098" y="-630" width="120" height="50" as="geometry" />
        </mxCell>
        <mxCell id="7OXbnp42D5U2tR_pvhxg-89" value="" style="endArrow=classic;html=1;rounded=0;exitX=0.5;exitY=1;exitDx=0;exitDy=0;entryX=0.5;entryY=0;entryDx=0;entryDy=0;" parent="WIyWlLk6GJQsqaUBKTNV-1" source="7OXbnp42D5U2tR_pvhxg-88" target="7OXbnp42D5U2tR_pvhxg-91" edge="1">
          <mxGeometry width="50" height="50" relative="1" as="geometry">
            <mxPoint x="1158.0000000000002" y="-546" as="sourcePoint" />
            <mxPoint x="1158" y="-516" as="targetPoint" />
          </mxGeometry>
        </mxCell>
        <mxCell id="NRr4EW-WOlktRjABsZOP-11" value="" style="edgeStyle=orthogonalEdgeStyle;rounded=0;orthogonalLoop=1;jettySize=auto;html=1;" parent="WIyWlLk6GJQsqaUBKTNV-1" source="7OXbnp42D5U2tR_pvhxg-91" target="7OXbnp42D5U2tR_pvhxg-100" edge="1">
          <mxGeometry relative="1" as="geometry" />
        </mxCell>
        <mxCell id="7OXbnp42D5U2tR_pvhxg-91" value="float_value" style="shape=parallelogram;perimeter=parallelogramPerimeter;whiteSpace=wrap;html=1;fixedSize=1;fillColor=#e1d5e7;strokeColor=#9673a6;" parent="WIyWlLk6GJQsqaUBKTNV-1" vertex="1">
          <mxGeometry x="1078" y="-540" width="160" height="30" as="geometry" />
        </mxCell>
        <mxCell id="7OXbnp42D5U2tR_pvhxg-92" value="end" style="ellipse;whiteSpace=wrap;html=1;fillColor=#dae8fc;strokeColor=#6c8ebf;" parent="WIyWlLk6GJQsqaUBKTNV-1" vertex="1">
          <mxGeometry x="1098" y="110" width="120" height="50" as="geometry" />
        </mxCell>
        <mxCell id="7OXbnp42D5U2tR_pvhxg-93" value="&lt;font style=&quot;font-size: 22px;&quot;&gt;&lt;b&gt;LCD_floatToString&lt;/b&gt;&lt;/font&gt;" style="text;html=1;align=center;verticalAlign=middle;resizable=0;points=[];autosize=1;strokeColor=none;fillColor=none;" parent="WIyWlLk6GJQsqaUBKTNV-1" vertex="1">
          <mxGeometry x="1048" y="-680" width="220" height="40" as="geometry" />
        </mxCell>
        <mxCell id="7OXbnp42D5U2tR_pvhxg-94" value="&lt;font style=&quot;font-size: 12px;&quot;&gt;&amp;nbsp;pattern[i] = n%10 + &#39;0&#39;&lt;br&gt;n/=10&amp;nbsp;&lt;br&gt;i++, digit_count++&lt;br&gt;&lt;/font&gt;" style="rounded=0;whiteSpace=wrap;html=1;fillColor=#d5e8d4;strokeColor=#82b366;" parent="WIyWlLk6GJQsqaUBKTNV-1" vertex="1">
          <mxGeometry x="1270" y="-329.5" width="160" height="70" as="geometry" />
        </mxCell>
        <mxCell id="7OXbnp42D5U2tR_pvhxg-95" value="n&amp;gt;0" style="rhombus;whiteSpace=wrap;html=1;shadow=0;fontFamily=Helvetica;fontSize=12;align=center;strokeWidth=1;spacing=6;spacingTop=-4;fillColor=#fff2cc;strokeColor=#d6b656;" parent="WIyWlLk6GJQsqaUBKTNV-1" vertex="1">
          <mxGeometry x="1108" y="-334.5" width="100" height="80" as="geometry" />
        </mxCell>
        <mxCell id="7OXbnp42D5U2tR_pvhxg-96" value="Yes" style="rounded=0;html=1;jettySize=auto;orthogonalLoop=1;fontSize=11;endArrow=block;endFill=0;endSize=8;strokeWidth=1;shadow=0;labelBackgroundColor=none;edgeStyle=orthogonalEdgeStyle;exitX=1;exitY=0.5;exitDx=0;exitDy=0;entryX=0;entryY=0.5;entryDx=0;entryDy=0;" parent="WIyWlLk6GJQsqaUBKTNV-1" source="7OXbnp42D5U2tR_pvhxg-95" target="7OXbnp42D5U2tR_pvhxg-94" edge="1">
          <mxGeometry x="0.008" y="5" relative="1" as="geometry">
            <mxPoint x="-1" as="offset" />
            <mxPoint x="1438" y="-270.74" as="targetPoint" />
            <mxPoint x="1373" y="-270.74" as="sourcePoint" />
          </mxGeometry>
        </mxCell>
        <mxCell id="7OXbnp42D5U2tR_pvhxg-97" value="No" style="edgeStyle=orthogonalEdgeStyle;rounded=0;html=1;jettySize=auto;orthogonalLoop=1;fontSize=11;endArrow=block;endFill=0;endSize=8;strokeWidth=1;shadow=0;labelBackgroundColor=none;exitX=0.5;exitY=1;exitDx=0;exitDy=0;entryX=0.5;entryY=0;entryDx=0;entryDy=0;" parent="WIyWlLk6GJQsqaUBKTNV-1" source="7OXbnp42D5U2tR_pvhxg-95" target="NRr4EW-WOlktRjABsZOP-7" edge="1">
          <mxGeometry x="-0.3" y="-10" relative="1" as="geometry">
            <mxPoint as="offset" />
            <mxPoint x="693" y="-220.5" as="sourcePoint" />
            <mxPoint x="978" y="-250" as="targetPoint" />
          </mxGeometry>
        </mxCell>
        <mxCell id="7OXbnp42D5U2tR_pvhxg-98" value="" style="endArrow=classic;html=1;rounded=0;exitX=1;exitY=0.5;exitDx=0;exitDy=0;" parent="WIyWlLk6GJQsqaUBKTNV-1" source="7OXbnp42D5U2tR_pvhxg-94" edge="1">
          <mxGeometry width="50" height="50" relative="1" as="geometry">
            <mxPoint x="1113" y="-224.5" as="sourcePoint" />
            <mxPoint x="1158" y="-370" as="targetPoint" />
            <Array as="points">
              <mxPoint x="1463" y="-294.5" />
              <mxPoint x="1463" y="-370" />
            </Array>
          </mxGeometry>
        </mxCell>
        <mxCell id="0fO5r55bZoMLYyjKcrMd-0" style="edgeStyle=none;curved=1;rounded=0;orthogonalLoop=1;jettySize=auto;html=1;entryX=0.5;entryY=0;entryDx=0;entryDy=0;fontSize=12;startSize=8;endSize=8;" edge="1" parent="WIyWlLk6GJQsqaUBKTNV-1" source="7OXbnp42D5U2tR_pvhxg-100" target="7OXbnp42D5U2tR_pvhxg-95">
          <mxGeometry relative="1" as="geometry" />
        </mxCell>
        <mxCell id="7OXbnp42D5U2tR_pvhxg-100" value="&lt;font style=&quot;font-size: 12px;&quot;&gt;int n,i=0,j=0,temp_integer, digitcount=0&lt;br&gt;char t,&amp;nbsp;pattern[10]&lt;br&gt;temp_float = float_value*10&lt;br&gt;n = temp_float&amp;nbsp;&lt;/font&gt;" style="rounded=0;whiteSpace=wrap;html=1;fillColor=#d5e8d4;strokeColor=#82b366;" parent="WIyWlLk6GJQsqaUBKTNV-1" vertex="1">
          <mxGeometry x="1038" y="-480" width="240" height="80" as="geometry" />
        </mxCell>
        <mxCell id="NRr4EW-WOlktRjABsZOP-2" value="&lt;font style=&quot;font-size: 12px;&quot;&gt;t = pattern[i]&lt;br&gt;pattern[i] =&amp;nbsp; pattern[j]&lt;br&gt;pattern[j] = t&lt;br&gt;i--, j++&lt;br&gt;&lt;/font&gt;" style="rounded=0;whiteSpace=wrap;html=1;fillColor=#d5e8d4;strokeColor=#82b366;" parent="WIyWlLk6GJQsqaUBKTNV-1" vertex="1">
          <mxGeometry x="1270" y="-140" width="160" height="80" as="geometry" />
        </mxCell>
        <mxCell id="NRr4EW-WOlktRjABsZOP-3" value="j&amp;lt;i" style="rhombus;whiteSpace=wrap;html=1;shadow=0;fontFamily=Helvetica;fontSize=12;align=center;strokeWidth=1;spacing=6;spacingTop=-4;fillColor=#fff2cc;strokeColor=#d6b656;" parent="WIyWlLk6GJQsqaUBKTNV-1" vertex="1">
          <mxGeometry x="1108" y="-140" width="100" height="80" as="geometry" />
        </mxCell>
        <mxCell id="NRr4EW-WOlktRjABsZOP-4" value="Yes" style="rounded=0;html=1;jettySize=auto;orthogonalLoop=1;fontSize=11;endArrow=block;endFill=0;endSize=8;strokeWidth=1;shadow=0;labelBackgroundColor=none;edgeStyle=orthogonalEdgeStyle;exitX=1;exitY=0.5;exitDx=0;exitDy=0;entryX=0;entryY=0.5;entryDx=0;entryDy=0;" parent="WIyWlLk6GJQsqaUBKTNV-1" source="NRr4EW-WOlktRjABsZOP-3" target="NRr4EW-WOlktRjABsZOP-2" edge="1">
          <mxGeometry y="20" relative="1" as="geometry">
            <mxPoint as="offset" />
            <mxPoint x="1438" y="-76.24000000000001" as="targetPoint" />
            <mxPoint x="1373" y="-76.24000000000001" as="sourcePoint" />
          </mxGeometry>
        </mxCell>
        <mxCell id="NRr4EW-WOlktRjABsZOP-5" value="No" style="edgeStyle=orthogonalEdgeStyle;rounded=0;html=1;jettySize=auto;orthogonalLoop=1;fontSize=11;endArrow=block;endFill=0;endSize=8;strokeWidth=1;shadow=0;labelBackgroundColor=none;exitX=0.5;exitY=1;exitDx=0;exitDy=0;entryX=0.5;entryY=0;entryDx=0;entryDy=0;" parent="WIyWlLk6GJQsqaUBKTNV-1" source="NRr4EW-WOlktRjABsZOP-3" target="NRr4EW-WOlktRjABsZOP-9" edge="1">
          <mxGeometry x="-0.3333" y="10" relative="1" as="geometry">
            <mxPoint as="offset" />
            <mxPoint x="693" y="-26" as="sourcePoint" />
            <mxPoint x="1158" y="-10" as="targetPoint" />
          </mxGeometry>
        </mxCell>
        <mxCell id="NRr4EW-WOlktRjABsZOP-6" value="" style="endArrow=classic;html=1;rounded=0;exitX=1;exitY=0.5;exitDx=0;exitDy=0;" parent="WIyWlLk6GJQsqaUBKTNV-1" source="NRr4EW-WOlktRjABsZOP-2" edge="1">
          <mxGeometry width="50" height="50" relative="1" as="geometry">
            <mxPoint x="1438" y="-90" as="sourcePoint" />
            <mxPoint x="1158" y="-180" as="targetPoint" />
            <Array as="points">
              <mxPoint x="1458" y="-100" />
              <mxPoint x="1458" y="-180" />
              <mxPoint x="1398" y="-180" />
            </Array>
          </mxGeometry>
        </mxCell>
        <mxCell id="NRr4EW-WOlktRjABsZOP-8" value="" style="edgeStyle=orthogonalEdgeStyle;rounded=0;orthogonalLoop=1;jettySize=auto;html=1;entryX=0.5;entryY=0;entryDx=0;entryDy=0;" parent="WIyWlLk6GJQsqaUBKTNV-1" source="NRr4EW-WOlktRjABsZOP-7" target="NRr4EW-WOlktRjABsZOP-3" edge="1">
          <mxGeometry relative="1" as="geometry">
            <mxPoint x="1118" y="-160" as="targetPoint" />
          </mxGeometry>
        </mxCell>
        <mxCell id="NRr4EW-WOlktRjABsZOP-7" value="i--" style="rounded=0;whiteSpace=wrap;html=1;fillColor=#d5e8d4;strokeColor=#82b366;" parent="WIyWlLk6GJQsqaUBKTNV-1" vertex="1">
          <mxGeometry x="1098" y="-230" width="120" height="30" as="geometry" />
        </mxCell>
        <mxCell id="NRr4EW-WOlktRjABsZOP-10" value="" style="edgeStyle=orthogonalEdgeStyle;rounded=0;orthogonalLoop=1;jettySize=auto;html=1;" parent="WIyWlLk6GJQsqaUBKTNV-1" source="NRr4EW-WOlktRjABsZOP-9" target="7OXbnp42D5U2tR_pvhxg-92" edge="1">
          <mxGeometry relative="1" as="geometry" />
        </mxCell>
        <mxCell id="NRr4EW-WOlktRjABsZOP-9" value="pattern[digit_count]&amp;nbsp; = pattern[digit_count - 1]&lt;br&gt;pattern[digit_count - 1]&amp;nbsp; =&amp;nbsp; &#39;.&#39;&lt;br&gt;pattern[digit_count + 1]&amp;nbsp; =&amp;nbsp; &#39;\0&#39;&lt;br&gt;LCD_sendstring &amp;amp;pattern" style="rounded=0;whiteSpace=wrap;html=1;fillColor=#d5e8d4;strokeColor=#82b366;" parent="WIyWlLk6GJQsqaUBKTNV-1" vertex="1">
          <mxGeometry x="1018" y="-11" width="280" height="71" as="geometry" />
        </mxCell>
        <mxCell id="NRr4EW-WOlktRjABsZOP-13" value="&lt;span style=&quot;font-size: 22px;&quot;&gt;&lt;b&gt;LCD_clear&lt;/b&gt;&lt;/span&gt;" style="text;html=1;align=center;verticalAlign=middle;resizable=0;points=[];autosize=1;strokeColor=none;fillColor=none;" parent="WIyWlLk6GJQsqaUBKTNV-1" vertex="1">
          <mxGeometry x="1138" y="-1140" width="130" height="40" as="geometry" />
        </mxCell>
        <mxCell id="NRr4EW-WOlktRjABsZOP-18" value="" style="edgeStyle=orthogonalEdgeStyle;rounded=0;orthogonalLoop=1;jettySize=auto;html=1;" parent="WIyWlLk6GJQsqaUBKTNV-1" source="NRr4EW-WOlktRjABsZOP-14" target="NRr4EW-WOlktRjABsZOP-15" edge="1">
          <mxGeometry relative="1" as="geometry" />
        </mxCell>
        <mxCell id="NRr4EW-WOlktRjABsZOP-14" value="start" style="ellipse;whiteSpace=wrap;html=1;fillColor=#dae8fc;strokeColor=#6c8ebf;" parent="WIyWlLk6GJQsqaUBKTNV-1" vertex="1">
          <mxGeometry x="1128" y="-1080" width="120" height="50" as="geometry" />
        </mxCell>
        <mxCell id="NRr4EW-WOlktRjABsZOP-17" value="" style="edgeStyle=orthogonalEdgeStyle;rounded=0;orthogonalLoop=1;jettySize=auto;html=1;" parent="WIyWlLk6GJQsqaUBKTNV-1" source="NRr4EW-WOlktRjABsZOP-15" target="NRr4EW-WOlktRjABsZOP-16" edge="1">
          <mxGeometry relative="1" as="geometry" />
        </mxCell>
        <mxCell id="NRr4EW-WOlktRjABsZOP-15" value="&lt;font style=&quot;&quot;&gt;Clear Display sendcommand&lt;br&gt;&lt;/font&gt;" style="rounded=0;whiteSpace=wrap;html=1;fillColor=#d5e8d4;strokeColor=#82b366;" parent="WIyWlLk6GJQsqaUBKTNV-1" vertex="1">
          <mxGeometry x="1088" y="-980" width="200" height="60" as="geometry" />
        </mxCell>
        <mxCell id="NRr4EW-WOlktRjABsZOP-16" value="end" style="ellipse;whiteSpace=wrap;html=1;fillColor=#dae8fc;strokeColor=#6c8ebf;" parent="WIyWlLk6GJQsqaUBKTNV-1" vertex="1">
          <mxGeometry x="1128" y="-890" width="120" height="50" as="geometry" />
        </mxCell>
      </root>
    </mxGraphModel>
  </diagram>
</mxfile>
